<svg width="397" height="367" xmlns="http://www.w3.org/2000/svg"><g fill="none" fill-rule="evenodd" opacity=".5"><path d="M267.53 109.56h-12.79a4.53 4.53 0 0 1-4.52-4.52c0-2.36 1.94-5 4.52-5h9.14v1.74h-9.14c-1.53 0-2.77 1.75-2.77 3.26a2.79 2.79 0 0 0 2.77 2.78h12.79a2.79 2.79 0 0 0 2.78-2.78 3.5 3.5 0 0 0-.62-1.93l1.45-.98a5.24 5.24 0 0 1 .92 2.9c0 2.5-2.03 4.53-4.53 4.53z" fill="#B7B7B7" fill-rule="nonzero"/><path d="M267.53 102.58l-3.65-1.67c2 0 3.65 2.12 3.65 4.13a3.66 3.66 0 0 1-3.65 3.65h3.65a3.66 3.66 0 0 0 3.65-3.65c0-1.98-1.64-2.46-3.65-2.46z" opacity=".3" fill="#B7B7B7" fill-rule="nonzero"/><path d="M278 103.45h-11.03a4.53 4.53 0 0 1-4.52-4.52c0-2.36 1.93-5 4.52-5h6.67v1.74h-6.67c-1.54 0-2.78 1.74-2.78 3.26a2.79 2.79 0 0 0 2.78 2.77H278v1.75z" fill="#B7B7B7" fill-rule="nonzero"/><path d="M272.49 214.85a4.37 4.37 0 0 1 .3-1.58l-17.77.19v4.72h19.05a4.37 4.37 0 0 1-1.58-3.33z" opacity=".3" fill="#B7B7B7" fill-rule="nonzero"/><path d="M255.02 227.95v62h10.48l-1.74-22.35 3.49-.35s-5.6-11.25-6.68-17.87c-.88-5.34.87-9.42 3.19-10.4 2.31-.98 6.24 2.94 6.24 2.94s2.1-10.48 2.98-13.85l-17.96-.12zm27.18-.05c2.52 0 3.64 10.48 3.64 10.48s.4.44 3.36-.87c2.96-1.3 3.7.44 5.06 7.15 1.36 6.72-3.43 22.59-3.43 22.59h1.75l-1.75 22.7h6.99V140.62h-42.8v6.99H288l-.22 9.82-32.75-.21v10.91l33.19-.43v9.9l-33.19.14v18.38a3.88 3.88 0 0 1 .44-.04 3.93 3.93 0 0 1 3.93 3.93 4.2 4.2 0 0 1-2.17 3.5h30.99l.22 9.6-7.54.08c.73 1.76.23 3.8-1.25 5h8.57l-.44 9.77-5.57-.05zm-15.82-35.76a4.37 4.37 0 1 1 0-8.73 4.37 4.37 0 0 1 0 8.73zm14.84 6.99a3.5 3.5 0 1 1 0-6.99 3.5 3.5 0 0 1 0 6.99zm18.34-91.57l-20.14-34.2H255.9v15.72h14.66l14.16 22.87v4.2H255.9v15.73h43.66zm-81.93 24.32h75.99v8.73h-75.99z" opacity=".3" fill="#B7B7B7" fill-rule="nonzero"/><path d="M278.6 131.88h14.85v8.73H278.6zm-61.13 0h14.84v8.73h-14.84z" opacity=".53" fill="#B7B7B7" fill-rule="nonzero"/><path d="M297.82 290.83a.87.87 0 0 1-.88-.87V141.48h-82.97v19.22a.87.87 0 0 1-1.74 0v-20.96h86.46v150.22a.87.87 0 0 1-.87.87z" fill="#B7B7B7" fill-rule="nonzero"/><path d="M294.32 141.48H216.6V131h77.73v10.48zm-75.98-1.74h74.24v-6.99h-74.24v6.99z" fill="#B7B7B7" fill-rule="nonzero"/><path d="M300.44 132.75h-89.96v-25.7l.15-.22 23.5-34.34h45.57l20.74 34.83v25.43zM212.23 131h86.46v-23.2l-19.98-33.56h-43.67l-22.81 33.35V131zm72.83-13.97H226.2v-5.12l16.22-23.7h28.41l14.22 23.5v5.32zm-57.11-1.75h55.36v-3.09l-13.44-22.23h-26.52l-15.4 22.5v2.82zm61.13 42.8h-67.25v-11.36h67.25v11.36zm-65.5-1.75h63.76v-7.86h-63.76v7.86z" fill="#B7B7B7" fill-rule="nonzero"/><path d="M238.43 157.2a.87.87 0 0 1-.88-.87v-8.73a.87.87 0 0 1 1.75 0v8.73a.87.87 0 0 1-.87.88zm27.95 0a.87.87 0 0 1-.88-.87v-8.73a.87.87 0 0 1 1.75 0v8.73a.87.87 0 0 1-.87.88zm22.7 20.97h-51.53a.87.87 0 0 1 0-1.75h49.79v-7.86h-57.65a.87.87 0 0 1 0-1.75h59.4v11.36z" fill="#B7B7B7" fill-rule="nonzero"/><path d="M238.43 177.3a.87.87 0 0 1-.88-.88v-8.73a.87.87 0 0 1 1.75 0v8.73a.87.87 0 0 1-.87.87zm27.95 0a.87.87 0 0 1-.88-.88v-8.73a.87.87 0 0 1 1.75 0v8.73a.87.87 0 0 1-.87.87zm-14.08 27.07h-10.38a.87.87 0 0 1 0-1.75h10.38a.87.87 0 0 1 0 1.75zm20.08 9.6h-34.83a.87.87 0 0 1 0-1.74h34.83a.87.87 0 0 1 0 1.74zm16.7 0h-7.35a.87.87 0 1 1 0-1.74h5.6v-7.86h-29.57a.87.87 0 1 1 0-1.75h31.32v11.35z" fill="#B7B7B7" fill-rule="nonzero"/><path d="M238.43 213.1a.87.87 0 0 1-.88-.87v-.88a.87.87 0 0 1 1.75 0v.88a.87.87 0 0 1-.87.87zm27.95 0a.87.87 0 0 1-.88-.87v-8.74a.87.87 0 0 1 1.75 0v8.74a.87.87 0 0 1-.87.87zm7.3 6.11H254.8a.87.87 0 0 1 0-1.74h18.89a.87.87 0 0 1 0 1.74zm-26.52 0H233.2a.87.87 0 0 1 0-1.74h13.97a.87.87 0 0 1 0 1.74zm25.65 9.61h-41.37a.87.87 0 0 1 0-1.75h41.37a.87.87 0 1 1 0 1.75zm16.27 0h-5.78a.87.87 0 0 1 0-1.75h4.04v-7.86h-7.6a.87.87 0 0 1 0-1.74h9.34v11.35z" fill="#B7B7B7" fill-rule="nonzero"/><path d="M238.43 227.95a.87.87 0 0 1-.88-.88v-8.73a.87.87 0 0 1 1.75 0v8.73a.87.87 0 0 1-.87.88zm27.95 0a.87.87 0 0 1-.88-.88v-8.73a.87.87 0 0 1 1.75 0v8.73a.87.87 0 0 1-.87.88zm-6.12 23.58H233.2a.87.87 0 1 1 0-1.75h27.07a.87.87 0 0 1 0 1.75zm3.5 9.6h-30.57a.87.87 0 1 1 0-1.74h30.57a.87.87 0 0 1 0 1.75z" fill="#B7B7B7" fill-rule="nonzero"/><path d="M238.43 260.26a.87.87 0 0 1-.88-.87v-8.73a.87.87 0 0 1 1.75 0v8.73a.87.87 0 0 1-.87.87zm27.07 6.12h-34.06a.87.87 0 0 1 0-1.75h34.06a.87.87 0 1 1 0 1.75zm-1.74 9.6h-38.43a.87.87 0 0 1 0-1.74h38.43a.87.87 0 0 1 0 1.74z" fill="#B7B7B7" fill-rule="nonzero"/><path d="M238.43 275.1a.87.87 0 0 1-.88-.86v-8.74a.87.87 0 0 1 1.75 0v8.74a.87.87 0 0 1-.87.87zm89.95-80l-2.76-3.95-18.2 22.52v-80.05l20.96-6.98z" fill="#B7B7B7" fill-rule="nonzero"/><path d="M321.4 130.13a.87.87 0 0 1-.88-.87V96.94a.87.87 0 0 1 1.75 0v32.32a.87.87 0 0 1-.87.87z" fill="#B7B7B7" fill-rule="nonzero"/><path d="M354.14 227.76a17.4 17.4 0 0 0 4.81-12.04h6.99c0 6.41-3.51 12.31-9.15 15.36l-2.65-3.32zm-9.16-41.73a13.83 13.83 0 0 0-3.5.46A13.97 13.97 0 0 1 351.97 200v15.72h6.98V200c0-7.72-6.25-13.97-13.97-13.97z" opacity=".3" fill="#7F7F7F" fill-rule="nonzero"/><path d="M356.79 231.96a.87.87 0 0 1-.42-1.65 16.6 16.6 0 0 0 8.7-13.72h-7.86v-1.74h.87V200a13.1 13.1 0 0 0-26.05-2.03.88.88 0 1 1-1.74-.27 14.85 14.85 0 0 1 29.54 2.3v14.85h6.98v.87c0 6.73-3.68 12.93-9.6 16.13a.87.87 0 0 1-.42.1z" fill="#B7B7B7" fill-rule="nonzero"/><path d="M346.72 219.06a.87.87 0 0 1-.87-.88v-9.45a.87.87 0 0 1 1.75 0v9.45a.87.87 0 0 1-.88.88z" fill="#B7B7B7" fill-rule="nonzero"/><path d="M346.72 216.6a.87.87 0 0 1-.52-1.58l6.99-5.24a.87.87 0 0 1 1.05 1.4l-7 5.24a.87.87 0 0 1-.52.17z" fill="#B7B7B7" fill-rule="nonzero"/><path d="M365.07 250.66a.87.87 0 0 1-.88-.88v-7.86l-38.84-49.24-26.84 34.23a.87.87 0 1 1-1.37-1.08l28.21-35.97 40.59 51.45v8.47a.87.87 0 0 1-.87.87z" fill="#B7B7B7" fill-rule="nonzero"/><path d="M364.3 253.16a.87.87 0 0 1-.7-.33l-43.3-54.9a.87.87 0 0 1 1.37-1.1l43.3 54.92a.87.87 0 0 1-.67 1.41zm-61.24 36.8a.87.87 0 0 1-.88-.88v-32.53a.87.87 0 0 1 1.75 0v32.53a.87.87 0 0 1-.87.88zm0-47.17a.87.87 0 0 1-.88-.87V220.1a.87.87 0 0 1 1.75 0v21.83a.87.87 0 0 1-.87.87zm6.98 46.3a.87.87 0 0 1-.87-.88v-31.88a.87.87 0 1 1 1.75 0v31.88a.87.87 0 0 1-.88.87zm0-46.3a.87.87 0 0 1-.87-.87v-30.57a.87.87 0 1 1 1.75 0v30.57a.87.87 0 0 1-.88.87zm7 47.17a.87.87 0 0 1-.88-.88v-32.31a.87.87 0 0 1 1.74 0v32.31a.87.87 0 0 1-.87.88zm0-47.17a.87.87 0 0 1-.88-.87v-40.17a.87.87 0 0 1 1.74 0v40.17a.87.87 0 0 1-.87.87z" fill="#B7B7B7" fill-rule="nonzero"/><path d="M324.02 289.08a.87.87 0 0 1-.88-.87v-86.46a.87.87 0 1 1 1.75 0v86.46a.87.87 0 0 1-.87.87zm6.98 0a.87.87 0 0 1-.87-.87v-77.73a.87.87 0 0 1 1.75 0v77.73a.87.87 0 0 1-.88.87zm7-.87a.87.87 0 0 1-.88-.87V219.2a.87.87 0 1 1 1.74 0v68.13a.87.87 0 0 1-.87.87zm6.98-7.69a.87.87 0 0 1-.88-.87v-50.83a.87.87 0 0 1 1.75 0v50.83a.87.87 0 0 1-.87.87zm6.98-9.56a.87.87 0 0 1-.87-.87v-32.54a.87.87 0 0 1 1.75 0v32.54a.87.87 0 0 1-.87.87zm7-10.04a.87.87 0 0 1-.88-.88V246.3a.87.87 0 1 1 1.75 0v13.75a.87.87 0 0 1-.88.88z" fill="#B7B7B7" fill-rule="nonzero"/><path d="M364.3 252.29l-43.31-54.91 4.36-6.11 39.72 50.35z" opacity=".3" fill="#B7B7B7" fill-rule="nonzero"/><path d="M319.65 256.77H298.7a.87.87 0 0 1 0-1.75h19.21V242.8H298.7a.87.87 0 0 1 0-1.74h20.96v15.72zm-155.67-16.6h-11.14a.87.87 0 1 1 0-1.74h11.14a.87.87 0 1 1 0 1.74zm-25.12 0h-18.34a.87.87 0 0 1 0-1.74h18.34a.87.87 0 1 1 0 1.74zM281.22 200a4.37 4.37 0 1 1 0-8.73 4.37 4.37 0 0 1 0 8.73zm0-6.99a2.62 2.62 0 1 0 0 5.24 2.62 2.62 0 0 0 0-5.24zm-4.36 27.08a5.24 5.24 0 1 1 0-10.48 5.24 5.24 0 0 1 0 10.48zm0-8.74a3.5 3.5 0 1 0 0 7 3.5 3.5 0 0 0 0-7zm-10.48-18.34a5.24 5.24 0 1 1 0-10.48 5.24 5.24 0 0 1 0 10.48zm0-8.73a3.5 3.5 0 1 0 0 6.99 3.5 3.5 0 0 0 0-6.99zm-11.36 20.96a5.24 5.24 0 1 1 0-10.48 5.24 5.24 0 0 1 0 10.48zm0-8.73a3.5 3.5 0 1 0 0 6.98 3.5 3.5 0 0 0 0-6.98zm-4.37 29.7a5.24 5.24 0 1 1 0-10.49 5.24 5.24 0 0 1 0 10.48zm0-8.74a3.5 3.5 0 1 0 0 6.98 3.5 3.5 0 0 0 0-6.98zm-5.24 19.21a4.37 4.37 0 1 1 0-8.73 4.37 4.37 0 0 1 0 8.73zm0-6.99a2.62 2.62 0 1 0 0 5.24 2.62 2.62 0 0 0 0-5.24z" fill="#B7B7B7" fill-rule="nonzero"/><path d="M266.38 240.4a.87.87 0 0 1-.88-.88v-51.75a.87.87 0 0 1 1.75 0v51.75a.87.87 0 0 1-.87.87z" fill="#B7B7B7" fill-rule="nonzero"/><path d="M266.38 207.86a.87.87 0 0 1-.54-1.56l14.85-11.36a.87.87 0 1 1 1.06 1.4l-14.85 11.35a.87.87 0 0 1-.52.17zm0 17.47a.87.87 0 0 1-.6-1.52l10.48-9.6a.87.87 0 0 1 1.18 1.27l-10.48 9.61a.87.87 0 0 1-.58.24zm0 5.24a.87.87 0 0 1-.42-.12l-15.72-8.73a.88.88 0 1 1 .87-1.53l15.72 8.74a.87.87 0 0 1-.45 1.64zm-11.36-29.7a.87.87 0 1 1-.07-1.74l11.36-.88a.88.88 0 1 1 .13 1.75l-11.36.87h-.06zm10.48 34.06h-.08l-20.08-1.74a.88.88 0 0 1 .14-1.75l20.1 1.75a.87.87 0 0 1-.09 1.74h.01zM84.72 72.5a.87.87 0 0 1-.88-.87v-16.6a.87.87 0 1 1 1.75 0v16.6a.87.87 0 0 1-.87.87z" fill="#B7B7B7" fill-rule="nonzero"/><path d="M89.96 134.5h6.11v43.67h-6.11z" opacity=".3" fill="#B7B7B7" fill-rule="nonzero"/><path d="M101.31 179.04H55.02v-45.42h41.05a.87.87 0 0 1 0 1.75h-39.3v41.92h44.54a.87.87 0 0 1 0 1.75z" fill="#B7B7B7" fill-rule="nonzero"/><path d="M96.07 135.37H55.9a.87.87 0 0 1-.88-.87v-13.98a.87.87 0 0 1 .12-.43L83.96 70.3a.87.87 0 0 1 .87-.43.87.87 0 0 1 .73.62l11.36 37.55a.87.87 0 0 1-1.67.5L84.5 72.93l-27.74 47.84v12.86h39.3a.87.87 0 0 1 0 1.75z" fill="#B7B7B7" fill-rule="nonzero"/><path d="M84.72 70.74l5.24 63.76h6.11l-.04-26.19z" opacity=".3" fill="#B7B7B7" fill-rule="nonzero"/><path d="M62 131a.87.87 0 0 1-.86-.87v-8.73a.87.87 0 1 1 1.74 0v8.73a.87.87 0 0 1-.87.87zm3.5 0a.87.87 0 0 1-.87-.87v-8.73a.87.87 0 1 1 1.75 0v8.73a.87.87 0 0 1-.88.87zm3.5 0a.87.87 0 0 1-.88-.87v-8.73a.87.87 0 1 1 1.75 0v8.73a.87.87 0 0 1-.87.87zm3.49 0a.87.87 0 0 1-.87-.87v-8.73a.87.87 0 1 1 1.74 0v8.73a.87.87 0 0 1-.87.87zm3.5 0a.87.87 0 0 1-.88-.87v-8.73a.87.87 0 1 1 1.75 0v8.73a.87.87 0 0 1-.88.87zm3.49 0a.87.87 0 0 1-.88-.87v-8.73a.87.87 0 1 1 1.75 0v8.73a.87.87 0 0 1-.87.87zm3.49 0a.87.87 0 0 1-.87-.87v-8.73a.87.87 0 1 1 1.74 0v8.73a.87.87 0 0 1-.87.87zm-11.35 39.3H60.26v-24.89a5.68 5.68 0 0 1 11.36 0v24.9zM62 168.57h7.86V145.4a3.93 3.93 0 0 0-7.86 0v23.15zm24.45 1.75H75.11v-24.9a5.68 5.68 0 0 1 11.35 0v24.9zm-9.6-1.75h7.86V145.4a3.93 3.93 0 0 0-7.86 0v23.15zm48.03-108.3a.87.87 0 0 1-.87-.87V42.8a.87.87 0 0 1 1.74 0v16.6a.87.87 0 0 1-.87.87z" fill="#B7B7B7" fill-rule="nonzero"/><path d="M130.13 178.17l7.86-9.03v-46.87h-7.86z" opacity=".3" fill="#B7B7B7" fill-rule="nonzero"/><path d="M129.26 179.04H95.2V121.4H138a.87.87 0 1 1 0 1.74H96.93v54.15h32.32a.87.87 0 0 1 0 1.75z" fill="#B7B7B7" fill-rule="nonzero"/><path d="M138 123.14H96.06a.87.87 0 0 1-.87-.87V108.3a.87.87 0 0 1 .11-.44l28.82-49.78a.87.87 0 0 1 .87-.43.87.87 0 0 1 .74.62l17.3 57.43a.87.87 0 1 1-1.66.51L124.64 60.7l-27.7 47.83v12.87H138a.87.87 0 1 1 0 1.74z" fill="#B7B7B7" fill-rule="nonzero"/><path d="M124.9 58.52l5.23 63.75H138l4.21-6.32z" opacity=".3" fill="#B7B7B7" fill-rule="nonzero"/><path d="M102.18 118.78a.87.87 0 0 1-.87-.88v-8.73a.87.87 0 1 1 1.75 0v8.73a.87.87 0 0 1-.88.88zm3.5 0a.87.87 0 0 1-.88-.88v-8.73a.87.87 0 0 1 1.75 0v8.73a.87.87 0 0 1-.87.88zm3.49 0a.87.87 0 0 1-.87-.88v-8.73a.87.87 0 0 1 1.74 0v8.73a.87.87 0 0 1-.87.88zm3.5 0a.87.87 0 0 1-.88-.88v-8.73a.87.87 0 1 1 1.75 0v8.73a.87.87 0 0 1-.88.88zm3.49 0a.87.87 0 0 1-.88-.88v-8.73a.87.87 0 1 1 1.75 0v8.73a.87.87 0 0 1-.87.88zm3.5 0a.87.87 0 0 1-.88-.88v-8.73a.87.87 0 1 1 1.74 0v8.73a.87.87 0 0 1-.87.88zm3.48 0a.87.87 0 0 1-.87-.88v-8.73a.87.87 0 0 1 1.75 0v8.73a.87.87 0 0 1-.88.88zm-11.35 39.3h-11.35v-24.9a5.68 5.68 0 1 1 11.35 0v24.9zm-9.6-1.75h7.85V133.2a3.93 3.93 0 1 0-7.86 0v23.14zm24.45 1.75h-11.36v-24.9a5.68 5.68 0 0 1 11.36 0v24.9zm-9.6-1.75h7.85V133.2a3.93 3.93 0 1 0-7.86 0v23.14zm49.77-80.35a.87.87 0 0 1-.87-.87V58.5a.87.87 0 1 1 1.75 0v16.6a.87.87 0 0 1-.88.87z" fill="#B7B7B7" fill-rule="nonzero"/><path d="M172.05 178.17h6.12l5.24-7V138h-11.36z" opacity=".3" fill="#B7B7B7" fill-rule="nonzero"/><path d="M183.4 172.05a.87.87 0 0 1-.87-.87v-32.32h-43.67v29.7a.87.87 0 0 1-1.74 0v-31.44h47.16v34.06a.87.87 0 0 1-.87.87zm-5.3 6.99h-6.92a.87.87 0 0 1 0-1.75h6.9a.87.87 0 0 1 0 1.75h.02z" fill="#B7B7B7" fill-rule="nonzero"/><path d="M186.03 138.86h-48.04a.87.87 0 0 1-.87-.87v-13.97a.87.87 0 0 1 .11-.44l28.82-49.78a.87.87 0 0 1 .88-.43.87.87 0 0 1 .73.62l19.21 63.76a.87.87 0 0 1-.87 1.12h.03zm-47.17-1.74h45.99l-18.3-60.7-27.69 47.83v12.87z" fill="#B7B7B7" fill-rule="nonzero"/><path d="M166.81 74.24l5.24 63.75h13.98z" opacity=".3" fill="#B7B7B7" fill-rule="nonzero"/><path d="M144.1 134.5a.87.87 0 0 1-.87-.88v-8.73a.87.87 0 1 1 1.75 0v8.73a.87.87 0 0 1-.88.88zm3.5 0a.87.87 0 0 1-.88-.88v-8.73a.87.87 0 1 1 1.75 0v8.73a.87.87 0 0 1-.87.88zm3.5 0a.87.87 0 0 1-.88-.88v-8.73a.87.87 0 1 1 1.75 0v8.73a.87.87 0 0 1-.88.88zm3.49 0a.87.87 0 0 1-.88-.88v-8.73a.87.87 0 0 1 1.75 0v8.73a.87.87 0 0 1-.87.88zm3.49 0a.87.87 0 0 1-.87-.88v-8.73a.87.87 0 0 1 1.74 0v8.73a.87.87 0 0 1-.87.88zm3.5 0a.87.87 0 0 1-.88-.88v-8.73a.87.87 0 1 1 1.75 0v8.73a.87.87 0 0 1-.88.88zm3.49 0a.87.87 0 0 1-.88-.88v-8.73a.87.87 0 1 1 1.75 0v8.73a.87.87 0 0 1-.87.88zm-21.84 33.19a.87.87 0 0 1-.87-.88v-17.9a5.68 5.68 0 1 1 11.35 0v16.16a.87.87 0 1 1-1.74 0V148.9a3.93 3.93 0 0 0-7.87 0v17.9a.87.87 0 0 1-.87.88zm24.46 6.1a.87.87 0 0 1-.88-.86V148.9a3.93 3.93 0 1 0-7.86 0v17.9a.87.87 0 1 1-1.74 0v-17.9a5.68 5.68 0 0 1 11.35 0v24.02a.87.87 0 0 1-.87.87zM78.6 228.83a.87.87 0 0 1-.87-.87v-49.78a.87.87 0 1 1 1.75 0v49.78a.87.87 0 0 1-.88.87zm48.91-37.55h-14.85a.87.87 0 0 1 0-1.75h14.85a.87.87 0 1 1 0 1.75z" fill="#B7B7B7" fill-rule="nonzero"/><path d="M98.69 191.27H79.48a.87.87 0 0 1 0-1.75h19.21a.87.87 0 1 1 0 1.75zm75.98 10.48h-4.57a.87.87 0 0 1 0-1.75h4.57a.87.87 0 1 1 0 1.75zm-44.54 0h-17.47a.87.87 0 0 1 0-1.75h17.47a.87.87 0 1 1 0 1.75zm-31.44 0H79.48a.87.87 0 0 1 0-1.75h19.21a.87.87 0 0 1 0 1.75zm79.48 10.48h-16.34a.87.87 0 1 1 0-1.75h16.34a.87.87 0 0 1 0 1.75zm-25.43 0h-40.08a.87.87 0 0 1 0-1.75h40.08a.87.87 0 0 1 0 1.75zm-54.05 0H79.48a.87.87 0 1 1 0-1.75h19.21a.87.87 0 0 1 0 1.75z" fill="#B7B7B7" fill-rule="nonzero"/><path d="M98.69 215.72v-27.95h13.97v27.95z" opacity=".3" fill="#B7B7B7" fill-rule="nonzero"/><path d="M113.54 216.6H97.82v-29.7h15.72v29.7zm-13.98-1.75h12.23v-26.2H99.56v26.2z" fill="#B7B7B7" fill-rule="nonzero"/><path d="M280.23 247.88c-.2 1.05.14-2.18.15-3.3.16-8.97-1.9-16.67-4.9-19.7a4.13 4.13 0 0 1 2.88-1.3c3.79.05 6.85 6.83 7.58 15.94 0 0-5.12 5.23-5.71 8.36z" opacity=".3" fill="#B7B7B7" fill-rule="nonzero"/><path d="M270 242.8h-.05a.87.87 0 0 1-.82-.93c.7-11.14 4.55-19.22 9.18-19.22h.07c4.1.07 7.37 6.21 8.34 15.65a.88.88 0 1 1-1.75.18c-.87-8.1-3.63-14.03-6.63-14.08-3.91 0-6.9 9.08-7.43 17.55a.87.87 0 0 1-.91.84z" fill="#B7B7B7" fill-rule="nonzero"/><path d="M279.96 251h-.07a.87.87 0 0 1-.8-.95c.95-12.1-2.09-18.42-2.12-18.48a.87.87 0 0 1 1.56-.78c.13.28 3.29 6.77 2.3 19.4a.87.87 0 0 1-.87.8z" fill="#B7B7B7" fill-rule="nonzero"/><path d="M289.89 267.25a43.9 43.9 0 0 0 3.38-9.73c2.35-10.35 1-19.48-3-20.38a3.78 3.78 0 0 0-2.82.62c2.13 3.3 2.52 10.58.7 18.6a41.76 41.76 0 0 1-4.17 11.22" opacity=".3" fill="#B7B7B7" fill-rule="nonzero"/><path d="M289.89 268.12a.87.87 0 0 1-.78-1.26 43.13 43.13 0 0 0 3.3-9.54 38.15 38.15 0 0 0 .88-13.4c-.5-3.42-1.67-5.58-3.2-5.93-3-.7-8.06 5.9-10.48 16.44a39.5 39.5 0 0 0-.97 12.7.87.87 0 0 1-.77.97.87.87 0 0 1-.97-.76 41.27 41.27 0 0 1 1-13.3c2.5-10.97 7.99-18.76 12.54-17.75 2.31.52 3.92 3.14 4.54 7.37a39.91 39.91 0 0 1-.88 14.05 44.98 44.98 0 0 1-3.45 9.93.87.87 0 0 1-.76.48z" fill="#B7B7B7" fill-rule="nonzero"/><path d="M285.18 266.43a.87.87 0 0 1-.32-.06.87.87 0 0 1-.5-1.13c5.3-13.89 3.13-21.03 3.12-21.1a.87.87 0 0 1 1.66-.54c.1.3 2.41 7.72-3.15 22.26a.87.87 0 0 1-.81.57z" fill="#B7B7B7" fill-rule="nonzero"/><path d="M278.3 256.72c.44-.96-.76-1.99-1.22-2.98-4.36-9.69-10.89-16.18-14.63-14.5a3.78 3.78 0 0 0-1.88 2.2c3.68 1.35 8.37 6.94 11.74 14.45a41.41 41.41 0 0 1 3.43 11.73l2.07-.35s-.57-8.21.5-10.55z" opacity=".3" fill="#B7B7B7" fill-rule="nonzero"/><path d="M267.7 268.12a.87.87 0 0 1-.71-.37 46.24 46.24 0 0 1-4.26-7.6c-4.6-10.27-4.88-19.8-.63-21.71 2.15-.97 5.02.15 8.06 3.17a39.91 39.91 0 0 1 7.72 11.77c.45 1 .87 2.04 1.26 3.07a.87.87 0 0 1-1.64.62c-.36-1-.78-2-1.21-2.97a38.17 38.17 0 0 0-7.36-11.25c-2.45-2.43-4.68-3.5-6.1-2.82-2.84 1.27-2.9 9.56 1.51 19.42a44.54 44.54 0 0 0 4.09 7.3.87.87 0 0 1-.72 1.37z" fill="#B7B7B7" fill-rule="nonzero"/><path d="M275.43 265.88a.87.87 0 0 1-.87-.63c-4.1-14.29-10.12-18.7-10.18-18.74a.87.87 0 1 1 1-1.44c.26.19 6.57 4.73 10.86 19.69a.87.87 0 0 1-.88 1.12h.07z" fill="#B7B7B7" fill-rule="nonzero"/><path d="M290.83 289.96h-11.35l1.74-22.71h11.36z" opacity=".3" fill="#B7B7B7" fill-rule="nonzero"/><path d="M291.64 290.83H264.7l-1.88-24.45h30.71l-1.88 24.45zm-25.33-1.75h23.72l1.61-20.96H264.7l1.61 20.96zM21.52 144.98H8.73a4.53 4.53 0 0 1-4.52-4.53c0-2.35 1.94-5 4.52-5h12.79c2.62 0 4.52 2.62 4.52 5 0 2.5-2.02 4.52-4.52 4.53zM8.73 137.2c-1.53 0-2.77 1.74-2.77 3.25a2.79 2.79 0 0 0 2.77 2.78h12.79a2.79 2.79 0 0 0 2.78-2.78c0-1.47-1.24-3.25-2.78-3.25H8.73z" fill="#B7B7B7" fill-rule="nonzero"/><path d="M21.52 136.32h-3.66c2 0 3.65 2.13 3.65 4.13a3.66 3.66 0 0 1-3.65 3.65h3.65a3.66 3.66 0 0 0 3.65-3.65c.01-2-1.63-4.13-3.64-4.13zm315.6-71.7a6.99 6.99 0 0 1-6.99 7h6.99a6.99 6.99 0 0 0 0-13.98h-6.99a6.99 6.99 0 0 1 6.99 6.99zm10.48 7h-6.99a6.99 6.99 0 0 1 0 13.97h6.99a6.99 6.99 0 1 0 0-13.97z" opacity=".3" fill="#B7B7B7" fill-rule="nonzero"/><path d="M346.72 86.46h-24.45a7.86 7.86 0 0 1 0-15.72h2.05a7.86 7.86 0 0 1 4.94-13.97h6.98a7.86 7.86 0 0 1 4.94 13.97h5.54a7.86 7.86 0 0 1 0 15.72zM322.27 72.5a6.11 6.11 0 1 0 0 12.23h24.45a6.11 6.11 0 0 0 0-12.23h-10.48a.87.87 0 0 1 0-1.75 6.11 6.11 0 1 0 0-12.22h-6.98a6.11 6.11 0 1 0 0 12.22.87.87 0 1 1 0 1.75h-6.99zM61.53 93.93H48.75a4.54 4.54 0 0 1-4.37-3.34l1.69-.47a2.79 2.79 0 0 0 2.68 2.05h12.78a2.79 2.79 0 0 0 2.78-2.77c0-1.48-1.24-3.26-2.78-3.26H58.9v-1.75h2.62c2.62 0 4.52 2.62 4.52 5 0 2.5-2.02 4.54-4.52 4.54z" fill="#B7B7B7" fill-rule="nonzero"/><path d="M61.53 85.28h-3.65c2 0 3.65 2.12 3.65 4.13a3.66 3.66 0 0 1-3.65 3.65h3.65a3.66 3.66 0 0 0 3.65-3.65c0-2.02-1.64-4.13-3.65-4.13z" opacity=".3" fill="#B7B7B7" fill-rule="nonzero"/><path d="M54.3 91.22H37.33a5.48 5.48 0 0 1-5.48-5.47v-.32a5.48 5.48 0 0 1 5.48-5.47H54.3a5.48 5.48 0 0 1 5.47 5.47v.32a5.48 5.48 0 0 1-5.47 5.47zM37.33 81.7a3.74 3.74 0 0 0-3.73 3.73v.32a3.74 3.74 0 0 0 3.73 3.73H54.3a3.74 3.74 0 0 0 3.72-3.73v-.32a3.74 3.74 0 0 0-3.72-3.73h-17z" fill="#B7B7B7" fill-rule="nonzero"/><path d="M54.15 80.83h-4.76a4.76 4.76 0 1 1 0 9.53h4.76a4.76 4.76 0 1 0 0-9.53zm146.4-63.36a6.99 6.99 0 0 1-6.98 6.98h6.99a6.99 6.99 0 0 0 0-13.97h-6.99a6.99 6.99 0 0 1 6.99 6.99zm9.93 16.67a6.93 6.93 0 0 0 .54-2.7 6.99 6.99 0 0 0-6.99-6.99h7a6.99 6.99 0 0 1 6.98 7 6.93 6.93 0 0 1-.55 2.7l-6.98-.01z" opacity=".3" fill="#B7B7B7" fill-rule="nonzero"/><path d="M203.18 39.3H185.7a7.86 7.86 0 1 1 0-15.72h2.06a7.86 7.86 0 0 1 4.94-13.97h6.98a7.86 7.86 0 0 1 4.94 13.97h5.54a7.86 7.86 0 0 1 7.86 7.86 7.76 7.76 0 0 1-.62 3.06.87.87 0 0 1-1.6-.68 6.04 6.04 0 0 0 .48-2.38 6.11 6.11 0 0 0-6.12-6.11H199.7a.87.87 0 1 1 0-1.75 6.11 6.11 0 1 0 0-12.23h-6.98a6.11 6.11 0 1 0 0 12.23.87.87 0 0 1 0 1.75h-6.99a6.11 6.11 0 1 0 0 12.22h17.47a.87.87 0 1 1 0 1.75h-.01z" fill="#B7B7B7" fill-rule="nonzero"/><path d="M219.93 42.8h-12.79a4.53 4.53 0 0 1-4.52-4.53c0-2.36 1.94-5 4.52-5h12.79c2.62 0 4.52 2.62 4.52 5 0 2.5-2.02 4.52-4.52 4.52zM207.14 35c-1.53 0-2.77 1.75-2.77 3.26a2.79 2.79 0 0 0 2.77 2.78h12.79a2.79 2.79 0 0 0 2.78-2.78c0-1.48-1.24-3.26-2.78-3.26h-12.79z" fill="#B7B7B7" fill-rule="nonzero"/><path d="M219.93 34.14h-3.65c2 0 3.65 2.12 3.65 4.13a3.66 3.66 0 0 1-3.65 3.65h3.65a3.66 3.66 0 0 0 3.65-3.65c0-2-1.64-4.13-3.65-4.13z" opacity=".3" fill="#B7B7B7" fill-rule="nonzero"/><circle fill="#B7B7B7" fill-rule="nonzero" cx="27.95" cy="194.32" r="1.31"/><path d="M248.03 25.33a.87.87 0 0 1-.87-.88v-3.49a.87.87 0 0 1 1.75 0v3.5a.87.87 0 0 1-.88.87z" fill="#7F7F7F" fill-rule="nonzero"/><path d="M249.78 23.58h-3.5a.87.87 0 1 1 0-1.75h3.5a.87.87 0 1 1 0 1.75zm47.16-10.48a.87.87 0 0 1-.87-.87v-3.5a.87.87 0 0 1 1.75 0v3.5a.87.87 0 0 1-.88.87z" fill="#7F7F7F" fill-rule="nonzero"/><path d="M298.69 11.35h-3.5a.87.87 0 1 1 0-1.74h3.5a.87.87 0 1 1 0 1.74zM140.61 5.24a.87.87 0 0 1-.87-.87V.87a.87.87 0 0 1 1.74 0v3.5a.87.87 0 0 1-.87.87z" fill="#7F7F7F" fill-rule="nonzero"/><path d="M142.36 3.5h-3.5a.87.87 0 1 1 0-1.75h3.5a.87.87 0 0 1 0 1.74zM52.4 45.4a.87.87 0 0 1-.87-.87v-3.5a.87.87 0 0 1 1.75 0v3.5a.87.87 0 0 1-.88.87z" fill="#7F7F7F" fill-rule="nonzero"/><path d="M54.15 43.67h-3.5a.87.87 0 0 1 0-1.75h3.5a.87.87 0 1 1 0 1.75zm301.3 96.94a.87.87 0 0 1-.86-.87v-3.5a.87.87 0 0 1 1.74 0v3.5a.87.87 0 0 1-.87.87z" fill="#7F7F7F" fill-rule="nonzero"/><path d="M357.2 138.86h-3.49a.87.87 0 0 1 0-1.74h3.5a.87.87 0 1 1 0 1.74zM27.08 173.8a.87.87 0 0 1-.87-.87v-3.5a.87.87 0 0 1 1.75 0v3.5a.87.87 0 0 1-.88.87z" fill="#7F7F7F" fill-rule="nonzero"/><path d="M28.82 172.05h-3.5a.87.87 0 0 1 0-1.74h3.5a.87.87 0 0 1 0 1.74zm351.1-82.97a.87.87 0 0 1-.88-.87v-3.5a.87.87 0 0 1 1.75 0v3.5a.87.87 0 0 1-.88.87z" fill="#7F7F7F" fill-rule="nonzero"/><path d="M381.66 87.34h-3.5a.87.87 0 1 1 0-1.75h3.5a.87.87 0 0 1 0 1.75zM144.98 53.28a.87.87 0 0 1-.88-.88v-3.5a.87.87 0 0 1 1.75 0v3.5a.87.87 0 0 1-.87.88z" fill="#7F7F7F" fill-rule="nonzero"/><path d="M146.72 51.53h-3.49a.87.87 0 1 1 0-1.75h3.5a.87.87 0 1 1 0 1.75zm50.66 64.63a.87.87 0 0 1-.87-.88v-3.49a.87.87 0 0 1 1.74 0v3.5a.87.87 0 0 1-.87.87z" fill="#7F7F7F" fill-rule="nonzero"/><path d="M199.13 114.41h-3.5a.87.87 0 1 1 0-1.75h3.5a.87.87 0 0 1 0 1.75zm-185.16-8.73a.87.87 0 0 1-.87-.88v-3.49a.87.87 0 1 1 1.75 0v3.5a.87.87 0 0 1-.88.87z" fill="#7F7F7F" fill-rule="nonzero"/><path d="M15.72 103.93h-3.5a.87.87 0 0 1 0-1.75h3.5a.87.87 0 0 1 0 1.75zM291.7 58.52a.87.87 0 0 1-.87-.88v-3.5a.87.87 0 0 1 1.75 0v3.5a.87.87 0 0 1-.88.88z" fill="#7F7F7F" fill-rule="nonzero"/><path d="M293.45 56.77h-3.5a.87.87 0 1 1 0-1.75h3.5a.87.87 0 0 1 0 1.75zM373.8 166.8a.87.87 0 0 1-.87-.87v-3.5a.87.87 0 0 1 1.74 0v3.5a.87.87 0 0 1-.87.87z" fill="#7F7F7F" fill-rule="nonzero"/><path d="M375.55 165.07h-3.5a.87.87 0 1 1 0-1.75h3.5a.87.87 0 0 1 0 1.75z" fill="#7F7F7F" fill-rule="nonzero"/><circle fill="#B7B7B7" fill-rule="nonzero" cx="310.04" cy="92.14" r="1.31"/><circle fill="#7F7F7F" fill-rule="nonzero" cx="369.43" cy="179.04" r="1.31"/><circle fill="#B7B7B7" fill-rule="nonzero" cx="100" cy="58.95" r="1.31"/><circle fill="#7F7F7F" fill-rule="nonzero" cx="41.92" cy="181.22" r="1.31"/><circle fill="#7F7F7F" fill-rule="nonzero" cx="321.4" cy="38.86" r="1.31"/><circle fill="#B7B7B7" fill-rule="nonzero" cx="154.59" cy="24.89" r="1.31"/><circle fill="#7F7F7F" fill-rule="nonzero" cx="261.14" cy="38.86" r="1.31"/><circle fill="#B7B7B7" fill-rule="nonzero" cx="193.45" cy="139.74" r="1.31"/><circle fill="#7F7F7F" fill-rule="nonzero" cx="347.6" cy="165.5" r="1.31"/><circle fill="#7F7F7F" fill-rule="nonzero" cx="19.21" cy="38.86" r="1.31"/><circle fill="#B7B7B7" fill-rule="nonzero" cx="100" cy="28.82" r="1.31"/><circle fill="#7F7F7F" fill-rule="nonzero" cx="357.64" cy="97.82" r="1.31"/><circle fill="#B7B7B7" fill-rule="nonzero" cx="207.42" cy="83.84" r="1.31"/><circle fill="#7F7F7F" fill-rule="nonzero" cx="283.41" cy="37.12" r="1.31"/><path d="M37.83 129.65H25.05a4.53 4.53 0 0 1-4.53-4.52c0-2.36 1.94-5 4.53-5h12.78c2.62 0 4.53 2.61 4.53 5 0 2.5-2.03 4.52-4.53 4.52zm-12.78-7.78c-1.54 0-2.78 1.75-2.78 3.26a2.79 2.79 0 0 0 2.78 2.77h12.78a2.79 2.79 0 0 0 2.78-2.77c0-1.48-1.24-3.26-2.78-3.26H25.05z" fill="#B7B7B7" fill-rule="nonzero"/><path d="M37.83 121h-3.65c2.01 0 3.65 2.13 3.65 4.14a3.66 3.66 0 0 1-3.65 3.65h3.65a3.66 3.66 0 0 0 3.65-3.65c0-2-1.64-4.14-3.65-4.14z" opacity=".3" fill="#B7B7B7" fill-rule="nonzero"/><path d="M380.94 132.67h-12.77a4.53 4.53 0 0 1-4.53-4.52c0-2.36 1.94-5 4.53-5h12.78c2.62 0 4.53 2.61 4.53 5 0 2.5-2.04 4.52-4.54 4.52zm-12.77-7.78c-1.54 0-2.78 1.75-2.78 3.26a2.79 2.79 0 0 0 2.78 2.78h12.78a2.79 2.79 0 0 0 2.78-2.78c0-1.48-1.24-3.26-2.78-3.26h-12.78z" fill="#B7B7B7" fill-rule="nonzero"/><path d="M380.94 124.02h-3.65c2.01 0 3.65 2.12 3.65 4.13a3.66 3.66 0 0 1-3.65 3.65h3.65a3.66 3.66 0 0 0 3.65-3.65c0-2.01-1.64-4.13-3.65-4.13z" opacity=".3" fill="#B7B7B7" fill-rule="nonzero"/><path d="M114.41 290.83a.87.87 0 0 1-.87-.87v-61.14H40.17v32.32a.87.87 0 1 1-1.74 0v-34.07h76.85v62.89a.87.87 0 0 1-.87.87z" fill="#B7B7B7" fill-rule="nonzero"/><path d="M39.3 233.19h81.22v13.97H39.3z" opacity=".3" fill="#B7B7B7" fill-rule="nonzero"/><path d="M121.4 248.03H39.3a.87.87 0 1 1 0-1.74h80.35v-12.23H39.3a.87.87 0 1 1 0-1.75h82.1v15.72z" fill="#B7B7B7" fill-rule="nonzero"/><path d="M125.76 269.62H44.54l-9.6-13.97h90.82z" opacity=".3" fill="#B7B7B7" fill-rule="nonzero"/><path d="M126.64 270.74H45.4a.87.87 0 0 1 0-1.74h79.48v-12.23H35.81a.87.87 0 0 1 0-1.75h90.83v15.72z" fill="#B7B7B7" fill-rule="nonzero"/><path d="M133.62 289.96H61.14l-11.36-13.98h83.84z" opacity=".3" fill="#B7B7B7" fill-rule="nonzero"/><path d="M134.5 290.83H62a.87.87 0 1 1 0-1.75h70.75v-12.22H49.78a.87.87 0 1 1 0-1.75h84.72v15.72zM69 227.95a.87.87 0 0 1-.88-.88v-37.55a.87.87 0 1 1 1.75 0v37.55a.87.87 0 0 1-.87.88zm39.3.87H92.58v-7.86h15.72v7.86zm-13.98-1.75h12.23v-4.36H94.32v4.36zm98.7 55.9h-15.3a.87.87 0 1 1 0-1.75h15.3a.87.87 0 0 1 0 1.75z" fill="#B7B7B7" fill-rule="nonzero"/><path d="M138.86 262.64v-27.95h13.98v27.95z" opacity=".3" fill="#B7B7B7" fill-rule="nonzero"/><path d="M153.71 263.76H138v-29.7h15.72v29.7zM139.74 262h12.22v-26.2h-12.22V262z" fill="#B7B7B7" fill-rule="nonzero"/><path d="M138.86 289.52v-9.6h13.98v9.6z" opacity=".3" fill="#B7B7B7" fill-rule="nonzero"/><path d="M152.84 289.96a.87.87 0 0 1-.87-.88v-8.73h-12.23v8.73a.87.87 0 1 1-1.75 0V278.6h15.72v10.48a.87.87 0 0 1-.87.88z" fill="#B7B7B7" fill-rule="nonzero"/><path d="M177.96 242.55v20.09h-13.98v-24.46l5.24-3.49z" opacity=".3" fill="#B7B7B7" fill-rule="nonzero"/><path d="M179.04 263.76h-15.72v-26.2a.87.87 0 0 1 1.75 0V262h12.22v-18.34a.87.87 0 0 1 1.75 0v20.09z" fill="#B7B7B7" fill-rule="nonzero"/><path d="M163.64 289.54v-9.61h13.98v9.6z" opacity=".3" fill="#B7B7B7" fill-rule="nonzero"/><path d="M177.62 290.41a.87.87 0 0 1-.88-.87v-8.74h-12.22v8.74a.87.87 0 0 1-1.75 0v-10.48h15.72v10.48a.87.87 0 0 1-.87.87zm16.27-26.65h-60.27a.87.87 0 0 1 0-1.75h60.27a.87.87 0 1 1 0 1.75zm0 8.73h-60.27a.87.87 0 0 1 0-1.75h60.27a.87.87 0 0 1 0 1.75z" fill="#B7B7B7" fill-rule="nonzero"/><path d="M241.18 242.63a3.72 3.72 0 0 0-1.11 5.59c1.22 1.16 4.24.95 5.53-1.36 2.52-4.55 3.5-5.69 2.31-6.85-1.18-1.16-2.6.51-6.73 2.62z" opacity=".3" fill="#7F7F7F" fill-rule="nonzero"/><path d="M240.38 248.1a4 4 0 0 0 3.49-2.05c1.75-3.1 2.74-4.62 2.82-5.64.87-.4 1.43-.46 1.98.06 1.23 1.16.21 2.32-2.31 6.85-1.29 2.32-4.3 2.53-5.53 1.36a2.28 2.28 0 0 1-.45-.58z" opacity=".3" fill="#7F7F7F" fill-rule="nonzero"/><path d="M242.08 250.23a3.75 3.75 0 0 1-2.62-.94 4.28 4.28 0 0 1-1.04-3.63 4.42 4.42 0 0 1 2.35-3.36 38.16 38.16 0 0 0 3.06-1.75c1.94-1.17 3.34-2.02 4.67-.75 1.52 1.45.7 2.87-1.07 5.98l-1.08 1.92a4.86 4.86 0 0 1-3.55 2.45 4.97 4.97 0 0 1-.72.08zm-.49-6.38a2.68 2.68 0 0 0-1.42 2.06 2.62 2.62 0 0 0 .52 2.12 2.32 2.32 0 0 0 1.88.42 3.13 3.13 0 0 0 2.29-1.58l1.09-1.94c1.7-2.96 1.85-3.4 1.38-3.85-.3-.3-.7-.15-2.57.99-.87.5-1.87 1.13-3.17 1.75v.03z" fill="#7F7F7F" fill-rule="nonzero"/><path d="M234.06 253.42c-.41 0-.85-.02-1.3-.06a.87.87 0 0 1-.8-.94.87.87 0 0 1 .95-.8c2.3.2 4.09-.19 5.17-1.11a3.13 3.13 0 0 0 1.1-1.92.87.87 0 0 1 .93-.8.87.87 0 0 1 .82.93 4.86 4.86 0 0 1-1.75 3.1 7.71 7.71 0 0 1-5.12 1.6z" fill="#7F7F7F" fill-rule="nonzero"/><path d="M205.44 228.63s4.46 19.12 4.17 25.52c0 0 4.29-24.25 5.16-26l-9.33.48zm24.9 31.63a9.76 9.76 0 0 1-5.89 7.33v2.28c7.72-1.6 7.86-9.6 7.86-9.6h-1.98z" opacity=".3" fill="#7F7F7F" fill-rule="nonzero"/><path d="M158 226.61a.87.87 0 0 1-.61-.26l-1.87-1.9c-2.77-2.8-3.07-5.8-.82-8.02a.87.87 0 1 1 1.23 1.24c-2.05 2.02-.36 4.36.87 5.56l1.87 1.89a.87.87 0 0 1-.62 1.48l-.04.01zm9.69-5.65a.87.87 0 0 1-.55-.2l-4.7-3.86a.87.87 0 0 1 1.11-1.35l4.69 3.86a.87.87 0 0 1-.55 1.55z" fill="#7F7F7F" fill-rule="nonzero"/><path d="M221.83 259.39v20.09l2.62.87-.02-40.18-2.6 3.5v13.1l2.62.2v3.3zm-43.56-19.13s4.37 6.05 10.92-1.58l3.82-4.73v3.27l-3.82 4.7c-6.58 7.63-10.98 1.58-10.98 1.58l-9.88-8.57-.16-2.73 10.1 8.06z" opacity=".3" fill="#7F7F7F" fill-rule="nonzero"/><path d="M209.6 256.77h-.07a.87.87 0 0 1-.8-.87v-.83c-.08-.76-1.16-10.48-2.62-19.12a69.7 69.7 0 0 0-1.52-7.1l1.68-.45a81.05 81.05 0 0 1 1.56 7.26c.83 4.92 1.52 10.15 2 13.92.7-3.96 1.61-9.24 2.4-13.92.43-2.62 1-5.19 1.68-7.75l1.69.46a79.92 79.92 0 0 0-1.65 7.58c-1.49 8.92-3.5 19.99-3.5 20.08a.87.87 0 0 1-.84.74z" fill="#7F7F7F" fill-rule="nonzero"/><path fill="#7F7F7F" fill-rule="nonzero" d="M210.48 230.57l.75 12.38-1.62 1.6-1-1.6.38-11.5z"/><path fill="#7F7F7F" fill-rule="nonzero" d="M209.6 228.93l2.63-.21-2.62 3.48-2.62-2.61zm14.85 28.71a.87.87 0 0 1-.87-.87v-16.6a.87.87 0 0 1 1.75 0v16.6a.87.87 0 0 1-.88.87zm-31.44 2.62h1.75v20.96h-1.75zm1.75-3.5h-1.75V239.4l-3.06 3.18c-2.42 2.81-4.91 4.19-7.4 4.11a6.93 6.93 0 0 1-4.9-2.54l-9.88-8.54 1.15-1.32 10.07 8.73a5.24 5.24 0 0 0 3.65 1.92c1.95.05 3.95-1.13 6.02-3.54l6.12-6.32-.02 21.7zm-10.82-22.24l-16.6-13.41-1.67 2.14-1.37-1.08 2.77-3.49 16.59 13.4a44.54 44.54 0 0 1 7.95-7.96l1.05 1.4a43.91 43.91 0 0 0-8.16 8.34l-.56.66z"/><path d="M225.33 281.22h-1.75V259.4h7.86v-23.31a15.16 15.16 0 0 0-5.57-11.84l1.1-1.35a16.9 16.9 0 0 1 6.22 13.19v25.06h-7.86v20.08z" fill="#7F7F7F" fill-rule="nonzero"/><path d="M224.45 270.74a.88.88 0 1 1-.17-1.74c6.99-1.45 7.16-8.74 7.16-8.74a.87.87 0 1 1 1.75 0c0 .09-.26 8.74-8.56 10.48h-.18zm-14.84 18.34a.87.87 0 0 1-.88-.87v-26.2a.87.87 0 0 1 1.75 0v26.2a.87.87 0 0 1-.87.87z" fill="#7F7F7F" fill-rule="nonzero"/><path d="M199.9 279.91a10.17 10.17 0 0 0-2.19.48c4.5.97 7.86 5.16 7.94 10.4h4.37c-.05-6.14-4.58-10.92-10.12-10.88z" opacity=".3" fill="#7F7F7F" fill-rule="nonzero"/><path d="M189.93 290.9a.87.87 0 0 1-.87-.87c-.05-6.37 4.71-11.36 10.83-11.44 6.11-.07 10.95 4.91 11 11.28a.87.87 0 0 1-.88.87l-20.09.15.01.01zM200 280.35h-.07a9.24 9.24 0 0 0-9.07 8.8l18.27-.13a9.24 9.24 0 0 0-9.13-8.67z" fill="#7F7F7F" fill-rule="nonzero"/><path d="M203.03 290.83a.87.87 0 0 1-.87-.87v-3.5a.87.87 0 1 1 1.74 0v3.5a.87.87 0 0 1-.87.87zm-3.5 0a.87.87 0 0 1-.87-.87v-3.5a.87.87 0 0 1 1.75 0v3.5a.87.87 0 0 1-.87.87zm-3.49 0a.87.87 0 0 1-.87-.87v-3.5a.87.87 0 1 1 1.75 0v3.5a.87.87 0 0 1-.88.87z" fill="#7F7F7F" fill-rule="nonzero"/><path d="M218.25 279.91a10.17 10.17 0 0 0-2.18.47c4.5 1 7.86 5.2 7.86 10.43h4.37c.01-6.1-4.5-10.91-10.05-10.9z" opacity=".3" fill="#7F7F7F" fill-rule="nonzero"/><path d="M208.24 290.83a.87.87 0 0 1-.87-.87 11.52 11.52 0 0 1 3.16-8.1 10.68 10.68 0 0 1 7.72-3.26c6.12 0 10.9 4.96 10.92 11.36a.87.87 0 0 1-.87.87l-20.09.07.03-.07zm10.05-10.48a8.95 8.95 0 0 0-6.46 2.75 9.67 9.67 0 0 0-2.62 6l18.21-.02a9.24 9.24 0 0 0-9.13-8.73z" fill="#7F7F7F" fill-rule="nonzero"/><path d="M221.34 290.83a.87.87 0 0 1-.87-.87v-3.5a.87.87 0 1 1 1.75 0v3.5a.87.87 0 0 1-.87.87zm-3.49 0a.87.87 0 0 1-.87-.87v-3.5a.87.87 0 0 1 1.74 0v3.5a.87.87 0 0 1-.87.87zm-3.5 0a.87.87 0 0 1-.87-.87v-3.5a.87.87 0 1 1 1.75 0v3.5a.87.87 0 0 1-.87.87zm-4.74-37.55h-.17a.87.87 0 0 1-.69-1.03c1.03-5.4 6.54-8.8 8.53-9.87l-1.52-4.53a.87.87 0 0 1 1-1.13l3.32.66v-10.3a.87.87 0 1 1 1.75 0v11.35a.87.87 0 0 1-1.05.87l-2.9-.58 1.28 3.82a.87.87 0 0 1-.46 1.07c-.07 0-7.18 3.39-8.25 8.98a.87.87 0 0 1-.84.69z" fill="#7F7F7F" fill-rule="nonzero"/><path d="M209.6 253.28a.87.87 0 0 1-.87-.71c-1.06-5.6-8.16-8.95-8.24-8.98a.87.87 0 0 1-.46-1.07l1.27-3.81-2.89.57a.87.87 0 0 1-1.05-.87v-10.46a.87.87 0 0 1 1.75 0v9.41l3.32-.66a.87.87 0 0 1 1 1.13l-1.52 4.53c1.99 1.06 7.5 4.47 8.53 9.88a.87.87 0 0 1-.7 1.02l-.13.02z" fill="#7F7F7F" fill-rule="nonzero"/><path d="M224.8 224.45a16.1 16.1 0 0 1 4.9 11.63v24.18h2.61v-24.18a16.08 16.08 0 0 0-5.9-12.5l-1.6.87z" opacity=".3" fill="#7F7F7F" fill-rule="nonzero"/><path d="M242.3 194.76a34.06 34.06 0 0 0-41.8-33.19h.75a34.06 34.06 0 0 1 7.73 67.25 34.06 34.06 0 0 0 33.32-34.06z" opacity=".3" fill="#7F7F7F" fill-rule="nonzero"/><path d="M208.24 229.7a34.93 34.93 0 1 1 0-69.87 34.93 34.93 0 0 1 0 69.86zm0-68.13a33.19 33.19 0 1 0 0 66.38 33.19 33.19 0 0 0 0-66.38z" fill="#7F7F7F" fill-rule="nonzero"/><path d="M208.02 165.07a.87.87 0 0 1-.7-.34l-.65-.87a.87.87 0 1 1 1.37-1.08l.66.87a.87.87 0 0 1-.7 1.42h.02zm-9.09 6.8a.87.87 0 0 1-.82-.58 5.65 5.65 0 0 0-3.28-3.67.87.87 0 0 1 .62-1.63 7.4 7.4 0 0 1 4.31 4.72.87.87 0 0 1-.82 1.16zm-10.78 2.8a.87.87 0 0 1-.82-.57 3.69 3.69 0 0 0-2.05-2.08.87.87 0 0 1 .51-1.67 5.41 5.41 0 0 1 3.19 3.16.87.87 0 0 1-.82 1.17h-.01zm-.87 10.48a.87.87 0 0 1-.76-.43c-.1-.15-2.11-3.5-6.89-2.21a.87.87 0 0 1-.44-1.69c4.89-1.28 7.92 1.42 8.84 3.03a.87.87 0 0 1-.76 1.31zm-10.49 9.61a.87.87 0 0 1-.62-1.48c3.7-3.87 8.6-2.03 8.8-1.95a.88.88 0 1 1-.63 1.63 6.64 6.64 0 0 0-6.92 1.54.87.87 0 0 1-.63.26zm.88 9.6a.87.87 0 0 1-.3-.05.87.87 0 0 1-.51-1.11c1.45-4 5.83-4.37 7.94-4.06a.88.88 0 1 1-.28 1.75c-.19 0-4.7-.69-6.02 2.94a.87.87 0 0 1-.83.54zm4.37 7.87h-.19a.87.87 0 0 1-.67-1.03c.87-4.02 5.72-5 5.93-5.05a.89.89 0 1 1 .33 1.75c-.05 0-3.96.82-4.55 3.68a.87.87 0 0 1-.86.65zm4.35 6.98a.87.87 0 0 1-.87-.8c-.34-4.43 4.76-6.11 4.98-6.11a.87.87 0 1 1 .52 1.67c-.05 0-3.99 1.3-3.75 4.36a.87.87 0 0 1-.8.94l-.08-.06zm31.66-48.75a.87.87 0 0 1-.69-1.4 8.1 8.1 0 0 1 4.65-3.12.87.87 0 1 1 .4 1.7 6.41 6.41 0 0 0-3.66 2.46.87.87 0 0 1-.7.36zm12.02 16.44a.87.87 0 0 1-.66-1.45c.1-.11 2.5-2.76 7.62-2.92a.87.87 0 0 1 0 1.75c-4.32.13-6.28 2.24-6.37 2.33a.87.87 0 0 1-.59.29zm9.6 7.86a.87.87 0 0 1-.32-.06c-4.36-1.75-7.05-.09-7.08-.07a.87.87 0 1 1-.92-1.49c.14-.08 3.5-2.1 8.64-.07a.87.87 0 0 1-.32 1.69zm-1.74 9.6a.87.87 0 0 1-.78-.46c-1.09-2.08-4.8-2.27-6.11-2.16a.88.88 0 1 1-.14-1.75c.24 0 5.98-.44 7.86 3.08a.87.87 0 0 1-.37 1.18.87.87 0 0 1-.46.12zm-5.24 9.61a.87.87 0 0 1-.87-.63c-.47-1.6-3.56-2.62-4.6-2.89a.9.9 0 1 1 .39-1.74c.51.11 5.04 1.21 5.88 4.1a.87.87 0 0 1-.59 1.08.87.87 0 0 1-.21.08zm-3.5-38.42a.87.87 0 0 1-.77-1.29 4.46 4.46 0 0 1 3.3-2.2.87.87 0 0 1 .95.8.87.87 0 0 1-.8.94 2.73 2.73 0 0 0-1.92 1.3.87.87 0 0 1-.76.45zm-5.24 44.54a.87.87 0 0 1-.88-.77 3.79 3.79 0 0 0-2.1-2.8.87.87 0 1 1 .7-1.6 5.55 5.55 0 0 1 3.13 4.2.87.87 0 0 1-.77.97h-.08zm-13.1 5.24a.87.87 0 0 1-.82-.57c-1.49-4.03-1.09-4.99-.57-5.37a.87.87 0 0 1 1.28 1.13c0 .2 0 1.08.94 3.63a.87.87 0 0 1-.82 1.18zm-13.52-.2a.87.87 0 0 1-.76-.44c-2.2-3.86 1.74-7.52 1.88-7.68a.87.87 0 0 1 1.2 1.29s-3.06 2.88-1.55 5.53a.87.87 0 0 1-.76 1.3h-.01zm10.9-18.51l-1.58-2-1.6-2h6.36l-1.6 2z" fill="#7F7F7F" fill-rule="nonzero"/><path d="M208.24 207.5a.87.87 0 0 1-.69-.34l-3.18-4a.87.87 0 0 1 .68-1.41h6.34a.87.87 0 0 1 .68 1.41l-3.17 4a.87.87 0 0 1-.66.33zm-1.38-4l1.37 1.74 1.36-1.75h-2.73z" fill="#7F7F7F" fill-rule="nonzero"/><path d="M211.35 210.63c-2.2 0-4-1.8-4-4.01a.87.87 0 0 1 1.74 0 2.27 2.27 0 1 0 4.53 0 .87.87 0 0 1 1.75 0 4 4 0 0 1-4.02 4z" fill="#7F7F7F" fill-rule="nonzero"/><path d="M205.1 210.63a4.02 4.02 0 0 1-4.02-4.01.87.87 0 0 1 1.75 0 2.27 2.27 0 1 0 4.53 0 .87.87 0 0 1 1.75 0 4 4 0 0 1-4.02 4zm11.65-13.25a4.16 4.16 0 0 1-4.15-4.15.87.87 0 0 1 1.75 0 2.4 2.4 0 1 0 4.8 0 .87.87 0 0 1 1.75 0 4.16 4.16 0 0 1-4.15 4.15zm-16.6 0a4.16 4.16 0 0 1-4.14-4.15.87.87 0 1 1 1.75 0 2.4 2.4 0 1 0 4.8 0 .87.87 0 0 1 1.75 0 4.16 4.16 0 0 1-4.15 4.15z" fill="#7F7F7F" fill-rule="nonzero"/><path d="M224.79 184.53a3.55 3.55 0 1 0-1.24-6.75 3.96 3.96 0 0 1-1.38 6.75 20.96 20.96 0 0 1-15.25 33.77c.43 0 .87.04 1.3.04a20.96 20.96 0 0 0 16.6-33.8h-.03z" opacity=".3" fill="#7F7F7F" fill-rule="nonzero"/><path d="M208.24 220.09a21.83 21.83 0 0 1-17.14-35.36 5.34 5.34 0 0 1-.95-.95 5.57 5.57 0 0 1-.13-6.62.87.87 0 0 1 .39-.3 5.57 5.57 0 0 1 6.87 2.5 21.83 21.83 0 0 1 23 .66 5.48 5.48 0 0 1 1.18-1.29 5.56 5.56 0 0 1 6.62-.13.87.87 0 0 1 .3.4 5.57 5.57 0 0 1-1.74 6.38 5.4 5.4 0 0 1-.5.34 21.59 21.59 0 0 1 3.93 12.53 21.83 21.83 0 0 1-21.83 21.84zm-16.97-41.69a3.82 3.82 0 0 0 .23 4.32c.34.43.78.79 1.28 1.04a.87.87 0 0 1 .26 1.35 20.09 20.09 0 1 0 31.04.87.87.87 0 0 1 .4-1.35 3.77 3.77 0 0 0 1.04-.57 2.62 2.62 0 1 0-3.02-3.89 3.74 3.74 0 0 0-1.16 1.52.87.87 0 0 1-1.32.36 20.09 20.09 0 0 0-22.71-.63.87.87 0 0 1-1.31-.48 3.76 3.76 0 0 0-.62-1.21 3.82 3.82 0 0 0-4.11-1.33z" fill="#7F7F7F" fill-rule="nonzero"/><path d="M193.89 181.8c-.54-1.48-1.28-1.46-1.3-1.45l-.1-.87c.06 0 1.44-.16 2.22 2.03l-.82.3zm29.6.88l-.82-.3c.79-2.19 2.16-2.04 2.21-2.03l-.1.87s-.76-.02-1.29 1.46z" fill="#7F7F7F" fill-rule="nonzero"/><path d="M193.01 256.77h32.32v3.5H193z" opacity=".3" fill="#7F7F7F" fill-rule="nonzero"/><path d="M226.2 261.14h-11.89a.87.87 0 0 1 0-1.75h10.14v-1.75h-9.6a.87.87 0 1 1 0-1.74h11.35v5.24zm-21.63 0h-12.43v-5.24h13.1a.87.87 0 0 1 0 1.74h-11.35v1.75h10.68a.87.87 0 0 1 0 1.75z" fill="#7F7F7F" fill-rule="nonzero"/><path d="M210.48 255.9h3.5v5.24h-3.5z" opacity=".3" fill="#7F7F7F" fill-rule="nonzero"/><path d="M214.85 262h-10.48v-6.98h10.48v6.99zm-8.74-1.74h6.99v-3.5h-6.99v3.5z" fill="#7F7F7F" fill-rule="nonzero"/><path d="M169.22 235.55l-4.15 1.32-8.13-26.56 3.3-1.31z" opacity=".3" fill="#7F7F7F" fill-rule="nonzero"/><path d="M161.74 238.8a.87.87 0 0 1-.88-.62l-8.12-26.55a.87.87 0 0 1 1.67-.5l7.86 25.7 5.8-1.83-8.73-25.72a.87.87 0 0 1 1.65-.56l9 26.56a.87.87 0 0 1-.57 1.1l-7.49 2.39a.87.87 0 0 1-.2.03z" fill="#7F7F7F" fill-rule="nonzero"/><path d="M153.31 166.69a22.7 22.7 0 0 1-10.36 43.9 22.7 22.7 0 1 0 10.36-43.9z" opacity=".3" fill="#7F7F7F" fill-rule="nonzero"/><path d="M150.16 212.04a23.58 23.58 0 1 1 7.12-1.1 23.48 23.48 0 0 1-7.12 1.1zm0-45.41a21.83 21.83 0 1 0 0 43.67 21.83 21.83 0 0 0 0-43.67zm0 36.69a14.85 14.85 0 1 1 4.5-.7 14.85 14.85 0 0 1-4.51.69h.02zm0-27.95a13.1 13.1 0 0 0-3.97.62 13.01 13.01 0 1 0 3.98-.62z" fill="#7F7F7F" fill-rule="nonzero"/><path d="M142.65 191.72a.87.87 0 0 1-.88-.61 8.73 8.73 0 0 1 5.68-10.97.88.88 0 0 1 .53 1.67 6.99 6.99 0 0 0-4.54 8.73.87.87 0 0 1-.87 1.14l.08.04z" fill="#7F7F7F" fill-rule="nonzero"/><path d="M400 119.65v-4.2l-14.16-22.87h-14.66v27.07z"/><path d="M180.58 297.2c-5.3 0-9.61 1.66-9.61 3.7 0 2.06 4.37 3.72 9.6 3.72a24.45 24.45 0 0 0 2.83-.16v-7.1a24.66 24.66 0 0 0-2.82-.16zm4.57 6.62c3.5-.38 5.57-1.54 5.57-2.91s-2.07-2.53-5.57-2.91v5.82zm-24.66 1.24c-5.3 0-9.6 1.66-9.6 3.7 0 2.06 4.36 3.72 9.6 3.72a24.45 24.45 0 0 0 2.82-.16v-7.1a24.66 24.66 0 0 0-2.82-.16zm4.58 6.62c3.49-.38 5.56-1.54 5.56-2.91s-2.07-2.53-5.56-2.91v5.82zm39.09-6.62c-5.3 0-9.61 1.66-9.61 3.7 0 2.06 4.37 3.72 9.6 3.72a24.45 24.45 0 0 0 2.83-.16v-7.1a24.66 24.66 0 0 0-2.82-.16zm4.57 6.62c3.5-.38 5.57-1.54 5.57-2.91s-2.07-2.53-5.57-2.91v5.82zm19-15.36c-5.28 0-9.6 1.66-9.6 3.71 0 2.06 4.37 3.72 9.6 3.72a24.45 24.45 0 0 0 2.83-.16v-7.1a24.66 24.66 0 0 0-2.82-.17zm4.58 6.62c3.5-.37 5.57-1.53 5.57-2.9 0-1.38-2.07-2.53-5.57-2.91v5.81zm13.77 2.12c-5.3 0-9.6 1.66-9.6 3.7 0 2.06 4.36 3.72 9.6 3.72a24.45 24.45 0 0 0 2.82-.16v-7.1a24.65 24.65 0 0 0-2.82-.16zm4.58 6.62c3.49-.38 5.56-1.54 5.56-2.91s-2.07-2.53-5.56-2.91v5.82z" fill="#7F7F7F" fill-rule="nonzero"/><path d="M196.5 77.73a.87.87 0 0 1-.87-.87 3.5 3.5 0 1 0-6.98 0 .87.87 0 1 1-1.75 0 3.5 3.5 0 0 0-6.99 0 .87.87 0 0 1-1.74 0 5.24 5.24 0 0 1 9.6-2.9 5.24 5.24 0 0 1 9.61 2.9.87.87 0 0 1-.87.87zm33.2-18.34a.87.87 0 0 1-.88-.87 3.5 3.5 0 0 0-6.99 0 .87.87 0 0 1-1.74 0 3.5 3.5 0 1 0-6.99 0 .87.87 0 0 1-1.75 0 5.24 5.24 0 0 1 9.61-2.9 5.24 5.24 0 0 1 9.6 2.9.87.87 0 0 1-.87.87z" fill="#B7B7B7" fill-rule="nonzero"/><path d="M211.76 167.69a.87.87 0 0 1-.88-.88 1.78 1.78 0 0 0-3.56 0 .87.87 0 1 1-1.75 0 3.53 3.53 0 0 1 7.06 0 .87.87 0 0 1-.87.88z" fill="#7F7F7F" fill-rule="nonzero"/><path d="M220.82 181.66a.87.87 0 0 1-.87-.87c.5-10.48-5.24-12.77-6.12-13.1h-8.73c-3.34.54-5.59 2.82-6.7 6.76a20.53 20.53 0 0 0-.7 6.12.87.87 0 0 1-.8.92.87.87 0 0 1-.94-.8 22 22 0 0 1 .74-6.69c1.3-4.65 4.14-7.44 8.2-8.07h9.07a.87.87 0 0 1 .23 0c.33.09 8.1 2.33 7.5 14.85a.87.87 0 0 1-.88.88z" fill="#7F7F7F" fill-rule="nonzero"/><path d="M207.6 184.81c-7.33 0-11.1-3.3-11.35-3.5a.87.87 0 0 1 .1-1.36c12.49-8.33 24.82.06 24.95.15a.87.87 0 0 1-.14 1.5 33.34 33.34 0 0 1-13.55 3.21zm-9.18-4.1c2.38 1.5 9.13 4.49 20.48-.06-3.28-1.75-11.66-5.1-20.48.05z" fill="#7F7F7F" fill-rule="nonzero"/><path d="M217.47 179.91a.87.87 0 0 1-.88-.87c-.52-10.2-4.53-11.4-4.57-11.4a.87.87 0 0 1-.63-1.06.87.87 0 0 1 1.03-.65c.22.05 5.33 1.34 5.92 13.02a.87.87 0 0 1-.83.93l-.04.03zm-15.9-.77a.87.87 0 0 1-.88-.74c-1.41-8.92 3.69-12.23 3.9-12.33a.87.87 0 0 1 .93 1.48c-.18.13-4.37 2.87-3.1 10.58a.87.87 0 0 1-.73 1h-.13z" fill="#7F7F7F" fill-rule="nonzero"/><path d="M200.73 178.17c.57-11.36 4.95-11.51 4.95-11.51s-6.99-1.23-8.3 13.25l3.35-1.74z" opacity=".3" fill="#7F7F7F" fill-rule="nonzero"/><path d="M212.63 172.2h-7.56a.44.44 0 1 1 0-.87h7.56a.44.44 0 0 1 0 .87zm0 2.04h-7.56a.44.44 0 0 1 0-.88h7.56a.44.44 0 0 1 0 .88z" fill="#7F7F7F" fill-rule="nonzero"/><path d="M206.18 175.55a.44.44 0 0 1-.43-.44v-4.8a.44.44 0 1 1 .87 0v4.8a.44.44 0 0 1-.44.44zm1.83 0a.44.44 0 0 1-.44-.44V170a.44.44 0 0 1 .88 0v5.1a.44.44 0 0 1-.44.44zm2.07-.19a.44.44 0 0 1-.44-.43v-4.62a.44.44 0 1 1 .88 0v4.62a.44.44 0 0 1-.44.43zm1.68 0a.44.44 0 0 1-.44-.43v-4.62a.44.44 0 1 1 .87 0v4.62a.44.44 0 0 1-.43.43z" fill="#7F7F7F" fill-rule="nonzero"/><path d="M163.32 282.97h-10.48a.87.87 0 1 1 0-1.75h10.48a.87.87 0 0 1 0 1.75zm-24.46-.44h-5.24a.87.87 0 0 1 0-1.74h5.24a.87.87 0 0 1 0 1.74z" fill="#B7B7B7" fill-rule="nonzero"/><path d="M198.65 348.47A192.52 192.52 0 0 1 19.2 225.64a.88.88 0 1 1 1.64-.63 190.78 190.78 0 0 0 355.67 0 .88.88 0 0 1 1.63.63 192.52 192.52 0 0 1-179.5 122.83zm182.42-140.36c.41 3.4 1.45 4.98 4.36 6.72-3.39.42-4.98 1.46-6.71 4.37-.42-3.4-1.46-4.98-4.37-6.72 3.39-.42 4.97-1.46 6.7-4.37h.02zm.44-3.3h-.11a1.12 1.12 0 0 0-.44.13 1.1 1.1 0 0 0-.32.3 1.07 1.07 0 0 0-.12.18c-2.3 4.58-3.32 5.24-8.45 5.52a1.1 1.1 0 0 0-.44 2.1c4.59 2.29 5.24 3.32 5.54 8.44.03.5.39.92.87 1.03h.23a1.1 1.1 0 0 0 .99-.61c2.3-4.59 3.32-5.24 8.43-5.54h.21a1.08 1.08 0 0 0 .4-.2 1.1 1.1 0 0 0 .3-.33 1.1 1.1 0 0 0 .12-.32 1.1 1.1 0 0 0-.4-1.1 1.08 1.08 0 0 0-.2-.11c-4.57-2.3-5.24-3.32-5.52-8.42a1.14 1.14 0 0 0 0-.22 1.1 1.1 0 0 0-.84-.82h-.23l-.02-.04zm.61-1.56h-.15a.87.87 0 0 1-.71-1.01l1.64-9.26a7.2 7.2 0 0 1 8.34-5.81 5.93 5.93 0 0 1 4.81 6.86 4.9 4.9 0 0 1-5.66 3.96 4.1 4.1 0 0 1-3.32-4.75 3.5 3.5 0 0 1 4-2.8.89.89 0 1 1-.31 1.74c-.92-.14-1.8.48-1.97 1.4a2.36 2.36 0 0 0 1.9 2.73 3.16 3.16 0 0 0 3.68-2.56 4.13 4.13 0 0 0-.7-3.12 4.17 4.17 0 0 0-2.7-1.75 5.45 5.45 0 0 0-6.3 4.37l-1.65 9.26a.87.87 0 0 1-.9.74zm-366.3 5.74c1.74 2.94 3.32 3.98 6.71 4.36-2.94 1.75-3.98 3.32-4.36 6.72-1.75-2.94-3.32-3.98-6.72-4.37 2.94-1.74 3.98-3.32 4.37-6.71zm-.46-3.31h-.22a1.1 1.1 0 0 0-.85.82 1.14 1.14 0 0 0 0 .22c-.28 5.1-.95 6.11-5.52 8.42a1.08 1.08 0 0 0-.2.1 1.1 1.1 0 0 0-.4 1.1 1.12 1.12 0 0 0 .42.66 1.08 1.08 0 0 0 .4.2h.22c5.1.28 6.1.95 8.42 5.53.2.38.57.61.99.62h.23a1.1 1.1 0 0 0 .87-1.03c.28-5.12.95-6.11 5.54-8.45a1.1 1.1 0 0 0-.44-2.09c-5.12-.28-6.11-.95-8.44-5.52a1.07 1.07 0 0 0-.13-.19 1.1 1.1 0 0 0-.32-.29 1.12 1.12 0 0 0-.44-.14l-.13.04zm-.6-1.56a.87.87 0 0 1-.87-.72l-1.66-9.26a5.45 5.45 0 0 0-6.32-4.37 4.18 4.18 0 0 0-3.4 4.84 3.16 3.16 0 0 0 3.67 2.56 2.36 2.36 0 0 0 1.92-2.73 1.75 1.75 0 0 0-.7-1.1 1.67 1.67 0 0 0-1.3-.34.89.89 0 1 1-.3-1.74 3.4 3.4 0 0 1 2.62.56 3.44 3.44 0 0 1 1.41 2.23 4.1 4.1 0 0 1-3.32 4.75 4.9 4.9 0 0 1-5.65-3.92 5.93 5.93 0 0 1 4.82-6.86 7.2 7.2 0 0 1 8.28 5.8l1.65 9.26a.87.87 0 0 1-.71 1.01l-.15.02zm367.53 45.78a4.87 4.87 0 0 1-1.83-.36 4.1 4.1 0 0 1-2.28-5.34.87.87 0 0 1 1.63.65c-.49 1.2.1 2.58 1.3 3.06a3.17 3.17 0 0 0 4.12-1.74 4.18 4.18 0 0 0-2.33-5.44 5.45 5.45 0 0 0-7.08 3.02.87.87 0 0 1-1.63-.65 7.2 7.2 0 0 1 9.36-3.98 5.93 5.93 0 0 1 3.3 7.7 4.92 4.92 0 0 1-4.56 3.08z" fill="#7F7F7F" fill-rule="nonzero"/><path d="M198.25 353.71v-1.74a193.6 193.6 0 0 0 112.1-35.09c1.34-.93 2.88-1.96 4.49-3.15l1.08 1.4c-1.62 1.2-3.24 2.24-4.6 3.18a196.1 196.1 0 0 1-113.07 35.4zm134.1-52.4a.87.87 0 0 1-.59-1.51 194.7 194.7 0 0 0 42.8-57.35.87.87 0 0 1 1.56.76 196.43 196.43 0 0 1-43.15 57.86.87.87 0 0 1-.61.24z" fill="#7F7F7F" fill-rule="nonzero"/><path d="M215.3 359.12a.87.87 0 1 1-.07-1.75 200.7 200.7 0 0 0 59.39-14.08.87.87 0 0 1 .66 1.62 202.49 202.49 0 0 1-59.9 14.2h-.08zm-33.3 0h-.08a202.5 202.5 0 0 1-59.9-14.2.87.87 0 1 1 .66-1.62 200.72 200.72 0 0 0 59.39 14.08.87.87 0 1 1-.07 1.75v-.01zm16.65 7a7.1 7.1 0 1 1 0-14.18 7.1 7.1 0 0 1 0 14.18zm0-12.43a5.34 5.34 0 1 0 5.34 5.34 5.35 5.35 0 0 0-5.34-5.32v-.02zM14.99 249.89a4.92 4.92 0 0 1-4.56-3.08 5.93 5.93 0 0 1 3.3-7.7 7.2 7.2 0 0 1 9.35 3.98.87.87 0 1 1-1.62.65 5.45 5.45 0 0 0-7.08-3.02 4.18 4.18 0 0 0-2.34 5.44 3.17 3.17 0 0 0 4.12 1.74 2.36 2.36 0 0 0 1.3-3.06.88.88 0 1 1 1.63-.66 4.1 4.1 0 0 1-2.28 5.34 4.9 4.9 0 0 1-1.82.38z" fill="#7F7F7F" fill-rule="nonzero"/><path d="M198.25 353.71a197 197 0 0 1-112.72-35.4c-1.36-.94-2.7-1.98-4.37-3.17l1.08-1.41c1.61 1.19 2.89 2.22 4.22 3.15a194.5 194.5 0 0 0 111.8 35.09v1.74zm-133.33-52.4a.87.87 0 0 1-.6-.24 196.4 196.4 0 0 1-43.15-57.86.87.87 0 1 1 1.54-.76 194.67 194.67 0 0 0 42.8 57.35.87.87 0 0 1-.6 1.51zm269.58-10.48H62a.87.87 0 1 1 0-1.75h272.5a.87.87 0 0 1 0 1.75z" fill="#7F7F7F" fill-rule="nonzero"/></g></svg>